<svg height="512" viewBox="0 0 64 64" width="512" xmlns="http://www.w3.org/2000/svg"><g id="Fill_Outline" data-name="Fill Outline"><g id="color"><g><g><path d="m58.95 49.05-29.7-29.7-9.9 9.9 29.7 29.7a7 7 0 0 0 9.9-9.9zm-3.536 6.364a2 2 0 1 1 0-2.828 2 2 0 0 1 0 2.828z" fill="#93999a"/><g fill="#656b76"><path d="m14.192 17.192h12v6h-12z" transform="matrix(-.707 .707 -.707 -.707 48.749 20.192)"/><path d="m60.686 51.934a6.666 6.666 0 0 1 -1.586 2.866 7 7 0 0 1 -10.05.155l-15.736-15.742a7 7 0 0 1 0-9.9l.464-.465a8.962 8.962 0 0 0 1.98-2.99l-6.507-6.507-9.9 9.9 29.7 29.7a7 7 0 0 0 11.636-7.016z"/><rect height="24" rx="2" transform="matrix(.707 -.707 .707 .707 -16.803 40.565)" width="4" x="38.565" y="28.565"/></g><path d="m32.08 34.08a2 2 0 0 1 2.828 0l14.142 14.142a1.967 1.967 0 0 1 .309.414 1.994 1.994 0 0 0 -.309-2.414l-14.142-14.142a2 2 0 0 0 -3.137 2.414 1.967 1.967 0 0 1 .309-.414z" fill="#464a51"/><path d="m25.142 16.657-11.314-11.314a8 8 0 0 1 11.314 0l7.778 7.778a9 9 0 0 1 0 12.728l-7.071 7.071a9 9 0 0 1 -12.728 0l-.707-.707 12.728-12.728z" fill="#d0d8da"/><path d="m32.92 13.121-2.283-2.283a3 3 0 0 1 -4.187-.045l-3.45-3.45a8 8 0 0 0 -8.846-1.674l10.988 10.988v2.828l-12.728 12.728.707.707a9 9 0 0 0 12.728 0l7.071-7.071a9 9 0 0 0 0-12.728z" fill="#93999a"/><path d="m4.879 14.021h8a0 0 0 0 1 0 0v10a8 8 0 0 1 -8 8 0 0 0 0 1 0 0v-18a0 0 0 0 1 0 0z" fill="#93999a" transform="matrix(-.707 .707 -.707 -.707 31.435 33.021)"/><circle cx="30.092" cy="18.778" fill="#d0d8da" r="2"/><path d="m15.95 24.678a5 5 0 0 1 -7.071 0l-3.536-3.536a7.939 7.939 0 0 1 -2.081-3.657 7.988 7.988 0 0 0 2.081 7.657l7.071 7.071 5.657-5.657-2-2z" fill="#656b76"/></g><path d="m54.041 9h-8.082l-4.042 7 4.042 7h8.082l4.042-7zm-4.041 10a3 3 0 1 1 3-3 3 3 0 0 1 -3 3z" fill="#d0d8da"/><path d="m49.691 21a5 5 0 0 1 -4.331-2.5 5 5 0 0 1 0-5l2.6-4.5h-2l-4.042 7 4.042 7h8.082l1.158-2z" fill="#93999a"/><path d="m32.041 47h-8.082l-4.042 7 4.042 7h8.082l4.042-7zm-4.041 10a3 3 0 1 1 3-3 3 3 0 0 1 -3 3z" fill="#d0d8da"/><path d="m27.691 59a5 5 0 0 1 -4.331-2.5 5 5 0 0 1 0-5l2.6-4.5h-2l-4.042 7 4.042 7h8.082l1.158-2z" fill="#93999a"/><path d="m15.041 38h-8.082l-4.042 7 4.042 7h8.082l4.042-7zm-4.041 10a3 3 0 1 1 3-3 3 3 0 0 1 -3 3z" fill="#d0d8da"/><path d="m10.691 50a5 5 0 0 1 -4.331-2.5 5 5 0 0 1 0-5l2.6-4.5h-2l-4.043 7 4.042 7h8.082l1.159-2z" fill="#93999a"/></g></g><g id="Outline_copy" data-name="Outline copy"><g fill="#323232"><path d="m47.636 50.636a2.983 2.983 0 0 0 2.121-.878 3 3 0 0 0 0-4.242l-14.142-14.143a3.074 3.074 0 0 0 -4.242 0 3 3 0 0 0 0 4.243l14.142 14.141a2.982 2.982 0 0 0 2.121.879zm-15.142-17.142a1 1 0 0 1 1.707-.707l14.142 14.142a1 1 0 0 1 0 1.413 1.022 1.022 0 0 1 -1.413 0l-14.143-14.142a1 1 0 0 1 -.293-.706z"/><path d="m56.121 56.121a3 3 0 1 0 -2.121.879 3 3 0 0 0 2.121-.879zm-2.828-2.828a1 1 0 1 1 0 1.414 1 1 0 0 1 0-1.414z"/><path d="m27.092 18.778a3 3 0 1 0 .879-2.122 2.978 2.978 0 0 0 -.879 2.122zm2.293-.707a1 1 0 1 1 -.293.707 1 1 0 0 1 .293-.707z"/><path d="m25.143 25.143-4.243 4.242a1 1 0 1 0 1.413 1.415l4.244-4.242a1 1 0 0 0 -1.414-1.414z"/><path d="m59.657 48.343-.062.062c-1.1-1.319-5.629-5.83-24.171-24.3a10.017 10.017 0 0 0 -1.8-11.692l-2.603-2.605a1 1 0 0 0 -1.415 1.414l2.607 2.606a8.011 8.011 0 0 1 0 11.315l-7.07 7.07a8.011 8.011 0 0 1 -11.315 0l4.949-4.948 7.071-7.07a1 1 0 0 0 .293-.707v-2.831a1 1 0 0 0 -.293-.707l-10.555-10.556a7.013 7.013 0 0 1 9.143.656l2.342 2.344a1 1 0 1 0 1.414-1.415l-2.342-2.343a9.013 9.013 0 0 0 -12.729 0 1 1 0 0 0 0 1.414l7.779 7.778-1.427 1.428a.985.985 0 0 0 -1.293-.106 1 1 0 0 0 -.2 1.4l.085.114-1.42 1.42a.985.985 0 0 0 -1.293-.105 1 1 0 0 0 -.2 1.4l.086.114-1.41 1.407-7.778-7.779a1 1 0 0 0 -1.414 0 9.012 9.012 0 0 0 0 12.729l4.243 4.242a1 1 0 0 0 1.414 0l2.121-2.121a1 1 0 1 0 -1.414-1.414l-1.414 1.414-2.122-2.122 1.415-1.414a1 1 0 0 0 -1.414-1.414l-1.415 1.415a7.012 7.012 0 0 1 -.656-9.143l11.263 11.263-4.95 4.95a1 1 0 0 0 0 1.414l.707.707a10.015 10.015 0 0 0 11.7 1.795l12.57 12.57a1 1 0 0 0 1.414-1.414l-12.285-12.278c.256-.21.505-.433.744-.672l7.07-7.07q.358-.36.673-.745c7.117 7.087 23.031 22.955 23.868 23.86.023.029.048.056.075.084a6 6 0 0 1 -8.486 8.485l-8.835-8.835a1 1 0 0 0 -1.414 1.414l8.835 8.835a8 8 0 0 0 11.314-11.313zm-35.514-31.272v2l-1.014 1.014-2.429-3.233 1.609-1.61zm-2.443 4.442-1.4 1.4-2.424-3.233 1.4-1.4zm-6.459.8 1.206-1.2 2.425 3.233-.8.8z"/><path d="m20.032 44.5-4.042-7a1 1 0 0 0 -.866-.5h-8.083a1 1 0 0 0 -.866.5l-4.041 7a1 1 0 0 0 0 1l4.041 7a1 1 0 0 0 .866.5h4.042a1 1 0 0 0 0-2h-3.465l-3.464-6 3.464-6h6.929l3.465 6-3.754 6.5a1 1 0 1 0 1.732 1l4.042-7a1 1 0 0 0 0-1z"/><path d="m11.083 41a4 4 0 1 0 4 4 4 4 0 0 0 -4-4zm0 6a2 2 0 1 1 2-2 2 2 0 0 1 -2 2z"/><path d="m32.907 46.5a1 1 0 0 0 -.866-.5h-8.082a1 1 0 0 0 -.866.5l-4.042 7a1 1 0 0 0 0 1l4.042 7a1 1 0 0 0 .866.5h8.082a1 1 0 0 0 .866-.5l4.042-7a1 1 0 0 0 0-1zm-1.443 13.5h-6.928l-3.465-6 3.465-6h6.928l3.465 6z"/><path d="m28 50a4 4 0 1 0 4 4 4 4 0 0 0 -4-4zm0 6a2 2 0 1 1 2-2 2 2 0 0 1 -2 2z"/><path d="m45.093 23.5a1 1 0 0 0 .866.5h4.041a1 1 0 0 0 0-2h-3.464l-3.465-6 3.465-6h6.928l3.465 6-3.754 6.5a1 1 0 1 0 1.732 1l4.042-7a1 1 0 0 0 0-1l-4.042-7a1 1 0 0 0 -.866-.5h-8.082a1 1 0 0 0 -.866.5l-4.042 7a1 1 0 0 0 0 1z"/><path d="m50 12a4 4 0 1 0 4 4 4 4 0 0 0 -4-4zm0 6a2 2 0 1 1 2-2 2 2 0 0 1 -2 2z"/></g></g></g></svg>